<svg xmlns="http://www.w3.org/2000/svg" xmlns:xlink="http://www.w3.org/1999/xlink" viewBox="0 0 1220.03 402.19"><defs><style>.cls-1{fill:#717172;}.cls-10,.cls-13,.cls-2{fill:#fff;}.cls-2,.cls-9{stroke:#605f5e;}.cls-10,.cls-13,.cls-14,.cls-2,.cls-9{stroke-miterlimit:10;}.cls-2{stroke-width:5px;}.cls-3{fill:#e4d52b;}.cls-12,.cls-4,.cls-8{fill:#5b5b5f;}.cls-5{fill:#444242;}.cls-6{fill:#9a999e;}.cls-7{fill:#87868a;}.cls-8{opacity:0.9;}.cls-14,.cls-9{fill:none;}.cls-9{stroke-width:2px;}.cls-10{stroke:#666564;stroke-width:3px;}.cls-11{opacity:0.4;}.cls-12{opacity:0.6;}.cls-13{opacity:0.12;stroke:url(#Degradado_sin_nombre_9);}.cls-14{stroke:#5b5b5f;stroke-width:7px;}</style><linearGradient id="Degradado_sin_nombre_9" x1="900.53" y1="534.54" x2="1172.94" y2="534.54" gradientUnits="userSpaceOnUse"><stop offset="0" stop-color="#fff"/><stop offset="1" stop-color="#fff" stop-opacity="0.4"/></linearGradient></defs><title>coche </title><g id="Capa_3" data-name="Capa 3"><path class="cls-1" d="M386,810,415,787l164-2.5,22.57,23.44L627,789S599.5,663,498.5,666.5C498.5,666.5,383.12,661.33,386,810Z" transform="translate(-314.47 -464.41)"/><path class="cls-1" d="M1166,809.5l26-15.94,161-8.14,26,17,12.16-17s2-129.53-129.5-123.08C1261.64,662.34,1155.81,673.53,1166,809.5Z" transform="translate(-314.47 -464.41)"/></g><g id="Capa_2" data-name="Capa 2"><path class="cls-2" d="M603,807h563s-8.63-141,116.92-138.36a71.82,71.82,0,0,1,18.59,2.86c26.24,7.65,91.73,36.15,80.49,128.5,0,0,133,3,150-46V686l-20-24V617s-3-45-40-45h-71s-71-72-266-99c0,0-157-21-277.81,15C830.75,495.86,786,515.77,763,531L660,593.5,420,612s-82,13-82,89c0,0-22-3-21,37l0,54s4,13,15,15h53S374.31,677.76,491.83,669.29a59.11,59.11,0,0,1,12.47.45C529.46,673.31,610.61,693.62,603,807Z" transform="translate(-314.47 -464.41)"/><path class="cls-3" d="M356,694s20-78,116-62C472,632,405,691,356,694Z" transform="translate(-314.47 -464.41)"/><path class="cls-4" d="M359.56,750.36a16.64,16.64,0,0,1-15.72,23.14H319.08l0-31.5h27.77A13.71,13.71,0,0,1,359.56,750.36Z" transform="translate(-314.47 -464.41)"/><circle class="cls-5" cx="178.94" cy="312.91" r="87.8"/><circle class="cls-6" cx="178.94" cy="312.91" r="58.1"/><circle class="cls-5" cx="960.32" cy="314.39" r="87.8"/><circle class="cls-6" cx="960.32" cy="314.39" r="58.1"/><path class="cls-7" d="M1510,618h-34.51a17.25,17.25,0,0,0-15.07,8.63c-4,7.14-6.74,18.18,2.28,31.06a13.39,13.39,0,0,0,11,5.64H1510Z" transform="translate(-314.47 -464.41)"/><path class="cls-4" d="M1229.74,638.75s-72.24,4-90.24,146.25v5.5H875L658.5,793V601.5L776.33,535,664,604l-1.5,184,472-3s12-129,93.5-148Z" transform="translate(-314.47 -464.41)"/><path class="cls-8" d="M967.1,625a10.13,10.13,0,0,0,1.12-4.62h0A10.26,10.26,0,0,0,958,610.1H913.1a10.27,10.27,0,0,0-10.23,10.23h0A10,10,0,0,0,904,625Z" transform="translate(-314.47 -464.41)"/><path class="cls-8" d="M1207.45,625a10.13,10.13,0,0,0,1.12-4.62h0a10.26,10.26,0,0,0-10.23-10.23h-44.89a10.26,10.26,0,0,0-10.23,10.23h0a10.13,10.13,0,0,0,1.12,4.62Z" transform="translate(-314.47 -464.41)"/><path class="cls-8" d="M715.67,592.5l533.75-7.44a36,36,0,0,0,31.54-19c3.51-6.72,5.24-15.23,2.26-25.53a31.19,31.19,0,0,0-20.55-20.94C1198.25,499,892.16,413.78,715.67,592.5Z" transform="translate(-314.47 -464.41)"/><path class="cls-4" d="M991.5,595.51s-20,92-19,190.52h7S975.5,729,991.5,595.51Z" transform="translate(-314.47 -464.41)"/><path class="cls-9" d="M1226,638.75" transform="translate(-314.47 -464.41)"/><line class="cls-9" x1="441.73" y1="133.64" x2="944.03" y2="128.54"/><ellipse class="cls-10" cx="738.17" cy="595.51" rx="36.85" ry="24.68" transform="translate(-342.45 -427.94) rotate(-2.78)"/><path class="cls-2" d="M1255.75,592.5" transform="translate(-314.47 -464.41)"/></g><g id="Capa_4" data-name="Capa 4"><g class="cls-11"><path class="cls-12" d="M408.8,714h-88c-2.47,5.49-4.1,13.45-3.81,25l0,54s4,13,15,15h53S380.58,754.42,408.8,714Z" transform="translate(-314.47 -464.41)"/><path class="cls-12" d="M1189.57,714h-609c15.15,20.42,25.42,50.29,22.48,94h563S1162.73,754.48,1189.57,714Z" transform="translate(-314.47 -464.41)"/><path class="cls-12" d="M1363.25,714c14.27,19.51,23.57,47.38,18.75,87,0,0,133,3,150-46V714Z" transform="translate(-314.47 -464.41)"/></g></g><g id="Capa_6" data-name="Capa 6"><polygon class="cls-4" points="689.26 17.15 661.42 123.54 709.94 122.79 722.3 16.77 689.26 17.15"/><path class="cls-13" d="M901.43,589l211.12-2.94L1172.11,492c-58.59-10.2-132.26-16.82-206.85-7.34Z" transform="translate(-314.47 -464.41)"/></g><g id="Capa_7" data-name="Capa 7"><path class="cls-14" d="M1000.21,594.5" transform="translate(-314.47 -464.41)"/></g></svg>